<svg width="128" height="128" viewBox="0 0 128 128" fill="none" xmlns="http://www.w3.org/2000/svg">
<path fill-rule="evenodd" clip-rule="evenodd" d="M86.4855 65.2379C87.4739 65.2379 88.4623 64.2495 88.4623 63.2611V49.9174C88.4623 48.929 87.9681 48.4348 86.9797 47.9406L64.7403 39.5391C64.2461 39.5391 63.7519 39.5391 63.2577 39.5391L41.0183 47.9406C40.5241 48.4348 40.0299 48.929 40.0299 49.9174V55.8479C40.0299 56.8364 41.0183 57.8248 42.0067 57.8248C42.9952 57.8248 43.4894 56.8364 43.4894 55.8479V52.3885L62.2693 59.3074V84.0178L43.4894 77.0989V64.7437C43.4894 63.2611 42.9952 62.7669 42.0067 62.7669C41.0183 62.7669 40.0299 63.2611 40.0299 64.7437V78.5815C40.0299 79.57 40.5241 80.0642 41.0183 80.0642L63.2577 88.4657C63.7519 88.9599 63.7519 88.9599 64.2461 88.9599C64.2461 88.9599 64.7403 88.9599 64.7403 88.4657L86.9797 80.0642C87.9681 80.0642 88.4623 79.57 88.4623 78.5815V72.1568C88.4623 71.1684 87.4739 70.18 86.4855 70.18C85.4971 70.18 84.5087 71.1684 84.5087 72.1568V77.0989L66.223 84.0178V59.3074L84.5087 52.3885V63.2611C84.5087 64.2495 85.4971 65.2379 86.4855 65.2379ZM64.2461 55.8479L47.443 49.9174L64.2461 43.4927L81.0492 49.9174L64.2461 55.8479Z" fill="white"/>
<path fill-rule="evenodd" clip-rule="evenodd" d="M62.2695 18.7799V32.1236C62.2695 33.112 63.2579 34.1004 64.2463 34.1004C65.2347 34.1004 66.2231 33.112 66.2231 32.1236V18.7799C70.1768 17.7915 73.6362 13.8378 73.6362 9.38996C73.6362 4.44788 69.1884 0 64.2463 0C58.81 0 54.8563 4.44788 54.8563 9.38996C54.8563 13.8378 57.8216 17.7915 62.2695 18.7799ZM64.2463 3.95367C67.2115 3.95367 69.6826 6.42471 69.6826 9.38996C69.6826 12.8494 67.2115 15.3205 64.2463 15.3205C60.7868 15.3205 58.3158 12.8494 58.3158 9.38996C58.3158 6.42471 60.7868 3.95367 64.2463 3.95367Z" fill="white"/>
<path fill-rule="evenodd" clip-rule="evenodd" d="M100.325 87.476C97.3601 87.476 94.8891 87.9702 92.418 89.947L87.9702 85.4991C87.476 84.5107 85.9933 84.5107 85.4991 85.4991C84.5107 85.9933 84.5107 87.476 85.4991 87.9702L89.947 92.418C87.9702 94.8891 87.476 97.3601 87.476 100.325C87.476 107.244 92.9123 113.175 100.325 113.175C107.244 113.175 113.175 107.244 113.175 100.325C113.175 92.9123 107.244 87.476 100.325 87.476ZM100.325 109.715C95.3833 109.715 90.9354 105.267 90.9354 100.325C90.9354 95.3833 95.3833 90.9354 100.325 90.9354C105.267 90.9354 109.715 95.3833 109.715 100.325C109.715 105.267 105.267 109.715 100.325 109.715Z" fill="white"/>
<path fill-rule="evenodd" clip-rule="evenodd" d="M28.17 41.0192C31.1353 41.0192 33.6063 40.0308 35.5832 38.5482L40.031 42.9961C40.5253 43.4903 41.0195 43.4903 41.5137 43.4903C42.0079 43.4903 42.5021 43.4903 42.9963 42.9961C43.4905 42.0076 43.4905 41.0192 42.9963 40.0308L38.5484 35.5829C40.031 33.6061 41.0195 31.135 41.0195 28.1698C41.0195 20.7567 35.089 14.8262 28.17 14.8262C20.7569 14.8262 14.8264 20.7567 14.8264 28.1698C14.8264 35.0887 20.7569 41.0192 28.17 41.0192ZM28.17 18.7798C33.1121 18.7798 37.0658 22.7335 37.0658 28.1698C37.0658 33.1119 33.1121 37.0656 28.17 37.0656C22.7338 37.0656 18.7801 33.1119 18.7801 28.1698C18.7801 22.7335 22.7338 18.7798 28.17 18.7798Z" fill="white"/>
<path fill-rule="evenodd" clip-rule="evenodd" d="M66.2231 109.713V95.8753C66.2231 94.8869 65.2347 93.8984 64.2463 93.8984C63.2579 93.8984 62.2695 94.8869 62.2695 95.8753V109.713C57.8216 110.207 54.8563 114.161 54.8563 118.609C54.8563 124.045 58.81 127.999 64.2463 127.999C69.1884 127.999 73.6362 124.045 73.6362 118.609C73.6362 114.161 70.1768 110.207 66.2231 109.713ZM64.2463 124.539C60.7868 124.539 58.3158 122.068 58.3158 118.609C58.3158 115.644 60.7868 113.173 64.2463 113.173C67.2115 113.173 69.6826 115.644 69.6826 118.609C69.6826 122.068 67.2115 124.539 64.2463 124.539Z" fill="white"/>
<path fill-rule="evenodd" clip-rule="evenodd" d="M118.609 54.8564C114.161 54.8564 110.207 57.8217 109.713 62.2696H95.8753C94.8869 62.2696 93.8984 63.258 93.8984 64.2464C93.8984 65.2348 94.8869 66.2232 95.8753 66.2232H109.713C110.207 70.1769 114.161 73.6364 118.609 73.6364C124.045 73.6364 127.999 69.1885 127.999 64.2464C127.999 58.8101 124.045 54.8564 118.609 54.8564ZM118.609 69.6827C115.644 69.6827 113.173 67.2117 113.173 64.2464C113.173 60.7869 115.644 58.3159 118.609 58.3159C122.068 58.3159 124.539 60.7869 124.539 64.2464C124.539 67.2117 122.068 69.6827 118.609 69.6827Z" fill="white"/>
<path fill-rule="evenodd" clip-rule="evenodd" d="M18.7799 66.2232H32.1236C33.112 66.2232 34.1004 65.2348 34.1004 64.2464C34.1004 63.258 33.112 62.2696 32.1236 62.2696H18.7799C17.7915 57.8217 13.8378 54.8564 9.38996 54.8564C4.44788 54.8564 0 58.8101 0 64.2464C0 69.1885 4.44788 73.6364 9.38996 73.6364C13.8378 73.6364 17.7915 70.1769 18.7799 66.2232ZM9.38996 69.6827C6.42471 69.6827 3.95367 67.2117 3.95367 64.2464C3.95367 60.7869 6.42471 58.3159 9.38996 58.3159C12.8494 58.3159 15.3205 60.7869 15.3205 64.2464C15.3205 67.2117 12.8494 69.6827 9.38996 69.6827Z" fill="white"/>
<path fill-rule="evenodd" clip-rule="evenodd" d="M86.4875 43.4903C86.9818 43.4903 87.476 43.4903 87.9702 42.9961L92.418 38.5482C94.8891 40.0308 97.3601 41.0192 100.325 41.0192C107.244 41.0192 113.175 35.0887 113.175 28.1698C113.175 20.7567 107.244 14.8262 100.325 14.8262C92.9123 14.8262 87.476 20.7567 87.476 28.1698C87.476 31.135 87.9702 33.6061 89.947 35.5829L85.4991 40.0308C84.5107 41.0192 84.5107 42.0076 85.4991 42.9961C85.4991 43.4903 85.9933 43.4903 86.4875 43.4903ZM100.325 18.7798C105.267 18.7798 109.715 22.7335 109.715 28.1698C109.715 33.1119 105.267 37.0656 100.325 37.0656C95.3833 37.0656 90.9354 33.1119 90.9354 28.1698C90.9354 22.7335 95.3833 18.7798 100.325 18.7798Z" fill="white"/>
<path fill-rule="evenodd" clip-rule="evenodd" d="M40.031 85.4991L35.5832 89.947C33.6063 87.9702 31.1353 87.476 28.17 87.476C20.7569 87.476 14.8264 92.9123 14.8264 100.325C14.8264 107.244 20.7569 113.175 28.17 113.175C35.089 113.175 41.0195 107.244 41.0195 100.325C41.0195 97.3601 40.031 94.8891 38.5484 92.418L42.9963 87.9702C43.4905 87.476 43.4905 85.9933 42.9963 85.4991C42.0079 84.5107 41.0195 84.5107 40.031 85.4991ZM28.17 109.715C22.7338 109.715 18.7801 105.267 18.7801 100.325C18.7801 95.3833 22.7338 90.9354 28.17 90.9354C33.1121 90.9354 37.0658 95.3833 37.0658 100.325C37.0658 105.267 33.1121 109.715 28.17 109.715Z" fill="white"/>
</svg>
