<svg width="136" height="128" viewBox="0 0 136 128" fill="none" xmlns="http://www.w3.org/2000/svg">
<rect x="0.05" y="0.05" width="135.9" height="127.9" rx="39.95" stroke="white" stroke-opacity="0.1" stroke-width="0.1"/>
<g clip-path="url(#clip0)">
<path d="M74.6263 24.4019L3.62344 37.3715L2.94936 34.1822L73.9523 21.2126L74.6263 24.4019ZM95.5228 23.5514L94.624 26.7407L93.9499 26.528L93.0511 26.3154L92.3771 26.1028L91.703 25.8902H90.8042L90.1301 25.6776L89.456 25.465H88.5573L87.8832 25.2523H87.2091L86.3104 25.0397H85.6363L84.9622 24.8271H84.2881L83.3893 24.6145H82.7153L82.0412 24.4019H81.3671H80.693H80.2436L79.5696 24.1893H78.8955H78.4461H77.772H77.3226H76.8733H76.4239H75.9745H75.5251H75.3004L74.851 24.4019H74.6263L73.9523 21.2126H74.4016L74.851 21H75.3004H75.7498H76.1992H76.8733H77.3226H77.9967H78.4461H79.1202H79.7943L80.4683 21.2126H81.1424H81.8165L82.4906 21.4252H83.1647H83.8387L84.7375 21.6379H85.4116L86.0857 21.8505H86.9844L87.6585 22.0631H88.5573L89.2314 22.2757L89.9054 22.4883H90.8042L91.4783 22.7009L92.3771 22.9136L93.0511 23.1262H93.9499L94.624 23.3388L95.5228 23.5514ZM124.059 33.757L94.624 26.7407L95.5228 23.5514L124.733 30.5678L124.059 33.757ZM133.046 38.222L132.372 35.2453H132.597V35.0327H132.822L132.597 35.2453H132.372V35.6706L132.148 36.0958L132.372 36.3084V36.521V36.7336V36.521H132.148L131.923 36.3084L131.698 36.0958H131.474L131.024 35.8832L130.8 35.6706H130.35L129.901 35.4579L129.451 35.2453L129.002 35.0327L128.553 34.8201H127.878L127.204 34.6075L126.755 34.3949L126.081 34.1822L125.407 33.9696H124.733L124.059 33.757L124.733 30.5678L125.632 30.7804L126.306 30.993L126.98 31.2056L127.654 31.4182L128.328 31.6308H129.002L129.451 31.8435L130.125 32.0561L130.575 32.2687L131.249 32.4813L131.698 32.6939L132.148 32.9065H132.597L132.822 33.1192L133.271 33.3318L133.721 33.5444L133.945 33.757L134.17 33.9696L134.619 34.1822L134.844 34.3949L135.069 34.6075L135.293 35.0327L135.518 35.4579V36.0958V36.7336L135.293 37.1589L134.844 37.5841L134.395 37.7967L134.17 38.0093L133.721 38.222H133.271H133.046ZM61.3695 48.215L132.372 35.2453L133.046 38.222L62.0435 51.4042L61.3695 48.215ZM40.473 49.0654L41.3718 45.8762L42.0459 46.0888L42.72 46.3014H43.6187L44.2928 46.514L44.9669 46.7266L45.8657 46.9393H46.5397L47.4385 47.1519H48.1126L48.7867 47.3645L49.6854 47.5771H50.3595L51.0336 47.7897H51.7077H52.3818L53.2805 48.0023H53.9546H54.6287L55.0781 48.215H55.7521H56.4262H57.1003H57.5497L57.9991 48.4276H58.6732H59.1225H59.5719L60.0213 48.215H60.4707H60.6954H61.1448H61.3695L62.0435 51.4042H61.5942H61.1448H60.6954H60.246L59.5719 51.6168H59.1225H58.6732H57.9991L57.325 51.4042H56.8756H56.2015H55.5275H54.8534L54.1793 51.1916H53.5052H52.8311L52.1571 50.979H51.2583L50.5842 50.7664H49.9101L49.0114 50.5537H48.3373L47.4385 50.3411H46.7644L45.8657 50.1285L45.1916 49.9159H44.2928L43.6187 49.7033L42.72 49.4907L42.0459 49.278L41.3718 49.0654H40.473ZM11.9371 38.8598L41.3718 45.8762L40.473 49.0654L11.0383 41.8364L11.9371 38.8598ZM2.94936 34.1822L3.62344 37.3715H3.39875H3.17406H3.39875V37.1589L3.62344 36.9463V36.521V36.3084V36.0958V35.8832V36.0958H3.84813L4.07283 36.3084H4.29752L4.52221 36.521L4.9716 36.7336H5.19629L5.64568 36.9463L6.09506 37.1589L6.54445 37.3715H6.99383L7.44322 37.5841L8.1173 37.7967L8.56668 38.0093L9.24076 38.222H9.91484L10.5889 38.4346L11.263 38.6472L11.9371 38.8598L11.0383 41.8364H10.3642L9.69014 41.6238L9.01607 41.4112L8.34199 41.1986L7.66791 40.986L6.99383 40.7734L6.54445 40.5607L5.87037 40.3481H5.42098L4.74691 40.1355L4.29752 39.9229L3.84813 39.7103L3.39875 39.4977L2.94936 39.285L2.72467 39.0724L2.27529 38.8598H2.05059L1.60121 38.6472L1.37652 38.4346L1.15182 38.0093L0.92713 37.7967L0.702437 37.3715L0.477744 36.9463L0.253052 36.521L0.477744 35.8832L0.702437 35.2453L1.15182 35.0327L1.60121 34.6075H1.8259L2.27529 34.3949L2.72467 34.1822H2.94936Z" fill="white"/>
<path d="M95.9697 85.4229L124.506 92.2266C132.37 94.1401 135.965 96.2663 132.595 96.9042L61.5917 109.874C58.2213 110.512 48.7842 109.449 40.92 107.535L11.4852 100.519C3.62098 98.6051 -0.198791 96.4789 3.39629 95.8411L40.6953 89.0373" stroke="white" stroke-opacity="0.5" stroke-width="0.4" stroke-linecap="round" stroke-linejoin="round"/>
<path d="M95.9697 55.0205L124.506 61.8242C132.37 63.7378 135.965 65.864 132.595 66.5018L61.5917 79.4714C58.2213 80.1093 48.7842 79.0462 40.92 77.1327L11.4852 70.1163C3.62098 68.2028 -0.198791 66.0766 3.39629 65.4387L40.6953 58.635" stroke="white" stroke-opacity="0.5" stroke-width="0.3" stroke-linecap="round" stroke-linejoin="round"/>
<path fill-rule="evenodd" clip-rule="evenodd" d="M39.3502 63.7353C41.5971 63.5227 43.3947 63.9479 44.7428 64.7984L51.7083 63.9479C51.7083 63.7353 51.7083 63.7353 51.7083 63.5227C51.7083 61.8218 54.854 60.1208 58.8985 60.1208C62.7182 59.9082 66.0886 61.3965 66.0886 63.3101C66.0886 63.3101 65.8639 63.5227 65.8639 63.7353L73.0541 66.2867C74.4023 65.6489 76.1998 65.2236 77.9974 65.2236C80.2443 65.2236 82.2665 65.4363 83.6147 66.2867L89.4567 65.6489C89.4567 65.4363 89.4567 65.4363 89.4567 65.2236C89.4567 63.5227 92.6024 61.8218 96.6469 61.8218C100.467 61.6092 103.837 63.0975 103.837 65.011C103.837 66.712 100.467 68.4129 96.6469 68.4129C94.8493 68.4129 93.0518 68.2003 91.9283 67.775L85.1875 68.4129C84.9628 70.3265 81.8171 71.8148 77.9974 71.8148C74.1776 72.0274 70.8072 70.5391 70.8072 68.6255C70.8072 68.6255 71.0319 68.4129 71.0319 68.2003L63.8417 65.6489C62.7182 66.2867 60.9207 66.712 58.8985 66.712C57.1009 66.712 55.5281 66.4993 54.1799 66.0741L46.5404 66.9246C46.3157 68.8381 43.17 70.3265 39.3502 70.3265C35.3057 70.5391 32.16 69.0508 32.16 67.1372C32.16 65.4363 35.3057 63.7353 39.3502 63.7353Z" fill="white"/>
<path fill-rule="evenodd" clip-rule="evenodd" d="M38.6768 34.1817C40.9237 34.1817 42.7213 34.3943 44.0694 35.0321L70.3585 30.7798C70.3585 30.7798 70.3585 30.7798 70.3585 30.5672C70.3585 28.8662 73.5042 27.3779 77.7733 27.3779C81.8178 27.3779 85.1882 28.8662 85.1882 30.5672C85.1882 32.4807 81.8178 33.9691 77.7733 33.9691C75.7511 33.9691 73.9536 33.5438 72.6054 32.906L46.0917 37.3709H46.3164C46.3164 39.2845 42.946 40.5602 38.6768 40.5602C34.6324 40.5602 31.262 39.2845 31.262 37.3709C31.262 35.67 34.6324 34.1817 38.6768 34.1817Z" fill="white"/>
<path fill-rule="evenodd" clip-rule="evenodd" d="M97.0959 32.4805C101.365 32.4805 104.511 33.7562 104.511 35.6697C104.511 37.5833 101.365 38.859 97.0959 38.859C95.0737 38.859 93.0515 38.6464 91.7033 38.0085L66.5377 42.0482C66.313 43.7492 63.1673 45.2375 59.1229 45.2375C54.8537 45.2375 51.708 43.7492 51.708 41.8356C51.708 40.1347 54.8537 38.6464 59.1229 38.6464C61.3698 38.6464 63.392 39.0716 64.7402 39.7094L89.6811 35.6697C89.6811 33.7562 93.0515 32.4805 97.0959 32.4805Z" fill="white"/>
<path fill-rule="evenodd" clip-rule="evenodd" d="M86.9859 91.376C91.0304 91.376 94.4008 92.8643 94.4008 94.5652C94.4008 96.4788 91.0304 97.9671 86.9859 97.9671C84.9637 97.9671 82.9415 97.5419 81.5933 96.904L56.4277 100.944C56.203 102.645 52.8327 104.133 49.0129 104.133C44.7437 104.133 41.598 102.645 41.598 100.731C41.598 99.0302 44.7437 97.5419 49.0129 97.5419C51.2598 97.5419 53.282 97.9671 54.6302 98.6049L79.5711 94.5652C79.5711 92.8643 82.9415 91.376 86.9859 91.376Z" fill="white"/>
</g>
<defs>
<clipPath id="clip0">
<rect width="136" height="91" fill="white" transform="translate(0 21)"/>
</clipPath>
</defs>
</svg>
