<svg width="128" height="128" viewBox="0 0 128 128" fill="none" xmlns="http://www.w3.org/2000/svg">
<path fill-rule="evenodd" clip-rule="evenodd" d="M71.1587 81.1242C70.368 80.4465 69.1821 80.5595 68.5326 81.3783L63.224 87.8164L61.2191 86.0939C60.4285 85.4162 59.2425 85.501 58.5648 86.2916C57.8871 87.054 57.9718 88.24 58.7625 88.9177L62.2357 91.939C62.5745 92.2214 62.9981 92.3908 63.4499 92.3908C63.5063 92.3908 63.5628 92.3908 63.6193 92.3908C64.1276 92.3343 64.5794 92.0802 64.89 91.6849L71.4128 83.7503C72.0905 82.9596 71.9493 81.7737 71.1587 81.1242Z" fill="white"/>
<path fill-rule="evenodd" clip-rule="evenodd" d="M115.773 108.572C115.463 108.487 115.124 108.402 114.813 108.318C114.39 108.176 114.051 107.583 113.825 106.99C118.653 103.658 122.24 97.9264 122.24 92.9001V88.354C122.24 82.7348 120.489 77.9909 117.157 74.5743C114.164 71.5246 110.154 69.8022 105.834 69.7175C105.805 69.7175 105.777 69.7175 105.777 69.7175C101.457 69.8022 97.4189 71.5246 94.454 74.5743C91.122 77.9909 89.3713 82.7348 89.3713 88.354V92.9001C89.3713 97.9264 92.9574 103.658 97.786 106.99C97.5319 107.583 97.193 108.176 96.7695 108.318C96.4589 108.402 96.12 108.487 95.8094 108.572C94.1999 109.024 92.3644 109.504 90.6702 110.266L77.5963 96.7404C79.6859 94.0579 80.9283 90.6694 80.9283 86.9704C80.9283 78.8663 74.8855 72.1741 67.1485 71.2705V58.2814H84.8251C86.5193 58.2814 87.8747 56.8978 87.8747 55.2036V51.2786C87.8747 42.1863 80.7871 40.2379 75.6197 38.826C75.3091 38.7413 74.9985 38.6566 74.6878 38.5719C74.2643 38.459 73.9254 37.866 73.6713 37.273C78.4999 33.941 82.1143 28.1807 82.1143 23.1827V18.6365C82.1143 13.0173 80.3353 8.24524 77.0315 4.85679C74.0384 1.80718 70.0004 0.0847114 65.6801 0C65.6801 0 65.6519 0 65.6236 0C61.3033 0.0847114 57.2936 1.80718 54.3005 4.85679C50.9685 8.24524 49.2177 13.0173 49.2177 18.6365V23.1827C49.2177 28.1807 52.8321 33.941 57.6607 37.273C57.4066 37.866 57.0677 38.459 56.6442 38.5719C56.3336 38.6566 56.0229 38.7413 55.6841 38.8543C50.5167 40.2379 43.4573 42.1863 43.4573 51.2786V55.2036C43.4573 56.8978 44.8127 58.2814 46.4787 58.2814H63.4211V71.327C55.797 72.3153 49.8954 78.951 49.8954 86.9704C49.8954 90.6694 51.1379 94.0579 53.2274 96.7686L40.5206 110.012C38.0922 108.063 34.8732 107.188 32.1906 106.454C31.88 106.369 31.5694 106.285 31.2305 106.2C30.807 106.087 30.4681 105.494 30.214 104.901C35.0708 101.541 38.657 95.8086 38.657 90.8106V86.2362C38.657 80.6452 36.9062 75.8732 33.5742 72.4565C30.5811 69.4069 26.5714 67.6844 22.251 67.6279C22.2228 67.5997 22.1946 67.5997 22.1946 67.6279C17.8743 67.6844 13.8363 69.4069 10.8714 72.4565C7.53938 75.8732 5.78866 80.6452 5.78866 86.2362V90.8106C5.78866 95.8086 9.37481 101.541 14.2034 104.901C13.9493 105.494 13.6104 106.087 13.1869 106.2C12.8762 106.285 12.5656 106.369 12.2268 106.454C7.05934 107.866 0 109.814 0 118.907V122.832C0 124.526 1.35539 125.909 3.04964 125.909H17.9307C18.9473 125.909 19.7944 125.062 19.7944 124.017C19.7944 123.001 18.9473 122.154 17.9307 122.154H3.75557V118.907C3.75557 113.88 6.40988 112.158 10.9561 110.746L19.2296 115.716C20.3027 116.393 21.2627 116.761 22.2228 116.761C23.1546 116.761 24.1147 116.393 25.1877 115.716L33.4895 110.746C38.0075 112.158 40.69 113.88 40.69 118.907V122.154H26.0913C25.0465 122.154 24.1994 123.001 24.1994 124.017C24.1994 125.062 25.0465 125.909 26.0913 125.909H41.396C43.062 125.909 44.4174 124.526 44.4174 122.832V118.907C44.4174 116.393 43.8809 114.417 43.0055 112.864L55.8818 99.4229C58.5078 101.512 61.8116 102.783 65.3977 102.783C69.0121 102.783 72.3159 101.512 74.942 99.4229L87.3382 112.243C85.1357 114.05 83.5826 116.732 83.5826 121.024V124.949C83.5826 126.644 84.938 127.999 86.6322 127.999H101.852C102.897 127.999 103.744 127.18 103.744 126.135C103.744 125.09 102.897 124.272 101.852 124.272H87.3382V121.024C87.3382 115.998 89.9925 114.276 94.5387 112.836L102.84 117.805C103.885 118.511 104.845 118.878 105.805 118.878C106.737 118.878 107.697 118.511 108.77 117.805L117.072 112.836C121.59 114.247 124.273 115.998 124.273 121.024V124.272H110.352C109.307 124.272 108.46 125.09 108.46 126.135C108.46 127.18 109.307 127.999 110.352 127.999H124.979C126.645 127.999 128 126.644 128 124.949V121.024C128 111.904 120.941 109.984 115.773 108.572ZM22.2228 71.3552C27.842 71.4682 33.8284 75.4496 34.7884 83.8925C33.9413 83.4972 33.433 82.9607 32.8401 82.3677C31.9647 81.4641 30.8352 80.2782 28.8304 80.2782C28.3503 80.2782 27.8138 80.3346 27.2208 80.504C26.4584 80.7017 25.809 80.8711 25.2442 81.0123C23.6347 81.4641 22.844 81.6618 22.2228 81.6618C21.5733 81.6618 20.7827 81.4641 19.2014 81.0123C18.6367 80.8711 17.9872 80.7017 17.2248 80.504C14.1469 79.6852 12.6786 81.2382 11.5773 82.3677C11.0126 82.9607 10.4761 83.5254 9.65718 83.8925C10.589 75.4496 16.6036 71.4682 22.2228 71.3552ZM9.51599 90.8106V87.8739C12.0574 87.281 13.3563 85.9256 14.2881 84.9655C15.2199 84.0055 15.3329 83.8643 16.2647 84.1184C17.0271 84.3161 17.6484 84.4855 18.2131 84.6549C20.0485 85.1349 21.0933 85.4173 22.2228 85.4173C23.3523 85.4173 24.3688 85.1349 26.2325 84.6549C26.769 84.4855 27.4185 84.3161 28.1809 84.1184C29.1127 83.8643 29.2257 84.0055 30.1293 84.9655C31.0611 85.9256 32.36 87.281 34.9014 87.8739V90.8106C34.9014 95.5262 30.3552 101.4 25.1877 103.348C22.9852 104.195 21.4322 104.195 19.2296 103.348C14.0622 101.4 9.51599 95.5262 9.51599 90.8106ZM23.2111 112.497C23.2111 112.525 23.1829 112.525 23.1546 112.553C22.251 113.146 22.1663 113.146 21.2627 112.553C21.2345 112.525 21.2345 112.525 21.2063 112.497L15.587 109.136C16.4906 108.487 17.1118 107.555 17.5072 106.708C17.6201 106.765 17.7613 106.821 17.9025 106.849C19.4273 107.442 20.8109 107.725 22.2228 107.725C23.6064 107.725 24.9901 107.442 26.5149 106.849C26.6561 106.821 26.7973 106.765 26.9384 106.708C27.3338 107.555 27.9268 108.487 28.8586 109.136L23.2111 112.497ZM65.6519 3.75554C71.2711 3.86849 77.2857 7.82168 78.2175 16.2646C77.3986 15.8975 76.8621 15.3328 76.2974 14.7398C75.422 13.8362 74.2925 12.6502 72.2594 12.6502C71.7794 12.6502 71.2429 12.7067 70.6781 12.8761C69.9157 13.0738 69.2663 13.2432 68.7298 13.4126C67.1202 13.8362 66.3013 14.0621 65.6519 14.0621C65.0307 14.0621 64.2118 13.8362 62.6022 13.4126C62.0657 13.2432 61.4163 13.0738 60.6539 12.8761C57.6042 12.0573 56.1077 13.6103 55.0346 14.7398C54.4416 15.3328 53.9334 15.8975 53.0863 16.2646C54.0463 7.82168 60.0326 3.86849 65.6519 3.75554ZM52.9733 23.1827V20.246C55.5147 19.653 56.8136 18.2977 57.7454 17.3376C58.649 16.3775 58.762 16.2646 59.6938 16.4905C60.4562 16.6881 61.0774 16.8576 61.6139 17.027C63.4776 17.5353 64.5224 17.8176 65.6519 17.8176C66.8096 17.8176 67.8262 17.5353 69.7181 17.027C70.2546 16.8576 70.8758 16.6881 71.61 16.4905C72.5418 16.2646 72.6548 16.3775 73.5866 17.3376C74.5184 18.2977 75.8173 19.653 78.3587 20.246V23.1827C78.3587 27.8418 73.7278 33.8281 68.645 35.7482C66.4425 36.5671 64.8895 36.5671 62.687 35.7482C57.6042 33.8281 52.9733 27.8418 52.9733 23.1827ZM72.2877 41.5368L66.6684 44.897C66.6402 44.897 66.6402 44.9253 66.612 44.9253C65.7084 45.5182 65.6236 45.5182 64.72 44.9253C64.6918 44.9253 64.6636 44.897 64.6636 44.897L59.0443 41.5368C59.9479 40.8591 60.5409 39.9273 60.9362 39.0802C61.0774 39.1367 61.2186 39.1931 61.3598 39.2496C62.8846 39.8143 64.2683 40.125 65.6519 40.125C67.0638 40.125 68.4474 39.8143 69.9722 39.2496C70.1134 39.1931 70.2546 39.1367 70.3675 39.0802C70.7628 39.9273 71.3558 40.8591 72.2877 41.5368ZM47.1846 54.5259V51.2786C47.1846 46.2524 49.8672 44.5299 54.3852 43.1181L62.687 48.0878C63.76 48.7938 64.72 49.1326 65.6519 49.1326C66.612 49.1326 67.572 48.7938 68.645 48.0878L76.9186 43.1181C81.4648 44.5299 84.1191 46.2524 84.1191 51.2786V54.5259H47.1846ZM65.3977 99.0276C58.9314 99.0276 53.651 93.6343 53.651 86.9704C53.651 80.3346 58.9314 74.9413 65.3977 74.9413C71.8923 74.9413 77.1727 80.3346 77.1727 86.9704C77.1727 93.6343 71.8923 99.0276 65.3977 99.0276ZM105.805 73.473C111.425 73.586 117.411 77.5674 118.371 86.0103C117.524 85.615 117.016 85.0785 116.423 84.4855C115.35 83.356 113.853 81.803 110.803 82.5936C110.041 82.8195 109.392 82.9889 108.827 83.1301C107.217 83.5819 106.427 83.7796 105.805 83.7796C105.156 83.7796 104.365 83.5819 102.784 83.1301C102.219 82.9889 101.57 82.8195 100.807 82.5936C97.7295 81.803 96.2612 83.356 95.1599 84.4855C94.5952 85.0785 94.0587 85.615 93.2398 86.0103C94.1716 77.5674 100.186 73.586 105.805 73.473ZM93.0986 92.9001V89.9635C95.64 89.3705 96.9671 88.0151 97.8707 87.0833C98.8026 86.1232 98.9155 85.9821 99.8473 86.2362C100.61 86.4338 101.231 86.6033 101.796 86.7445C103.631 87.2527 104.676 87.5351 105.805 87.5351C106.935 87.5351 107.951 87.2527 109.815 86.7445C110.352 86.6033 111.001 86.4338 111.764 86.2362C112.695 85.9821 112.808 86.1232 113.74 87.0833C114.644 88.0151 115.943 89.3705 118.484 89.9635V92.9001C118.484 97.644 113.966 103.517 108.799 105.466C106.568 106.313 105.015 106.313 102.812 105.466C97.6448 103.517 93.0986 97.644 93.0986 92.9001ZM106.822 114.614C106.794 114.643 106.765 114.643 106.737 114.671C105.834 115.264 105.777 115.264 104.874 114.671C104.845 114.643 104.817 114.643 104.789 114.614L99.1696 111.254C100.101 110.605 100.694 109.645 101.09 108.798C101.231 108.854 101.344 108.911 101.485 108.967C103.01 109.56 104.422 109.842 105.805 109.842C107.189 109.842 108.573 109.56 110.126 108.967C110.239 108.911 110.38 108.854 110.521 108.826C110.916 109.645 111.509 110.605 112.441 111.254L106.822 114.614Z" fill="white"/>
</svg>
