<svg width="111" height="111" viewBox="0 0 111 111" fill="none" xmlns="http://www.w3.org/2000/svg">
<path d="M74.6666 8.67188H74.4897C63.0619 8.67188 53.7656 17.9681 53.7656 29.3959C53.7656 34.3424 55.5364 39.131 58.7554 42.8824L64.1719 49.2042V53.7656C64.1719 59.5047 68.8391 64.1719 74.5781 64.1719C80.3172 64.1719 84.9844 59.5047 84.9844 53.7656V49.2042L90.4008 42.8824C93.6198 39.131 95.3906 34.3424 95.3906 29.3959C95.3906 17.9681 86.0944 8.67188 74.6666 8.67188V8.67188ZM74.5781 60.7031C70.7521 60.7031 67.6406 57.5917 67.6406 53.7656V50.2969H81.5156V53.7656C81.5156 57.5917 78.4042 60.7031 74.5781 60.7031ZM71.6904 31.2188H77.4659L76.4235 46.8281H72.731L71.6904 31.2188ZM87.768 40.6277L82.4522 46.8281H79.9009L80.9415 31.2188H83.25C86.1187 31.2188 88.4531 28.8843 88.4531 26.0156C88.4531 23.147 86.1187 20.8125 83.25 20.8125H83.0263C80.2964 20.8125 78.0139 22.9458 77.8353 25.6705L77.6965 27.75H71.4597L71.321 25.6722C71.1423 22.9458 68.8599 20.8125 66.13 20.8125H65.9062C63.0376 20.8125 60.7031 23.147 60.7031 26.0156C60.7031 28.8843 63.0376 31.2188 65.9062 31.2188H68.2147L69.2553 46.8281H66.7041L61.3882 40.6277C58.7103 37.5024 57.2344 33.5133 57.2344 29.3959C57.2344 19.8811 64.9749 12.1406 74.4897 12.1406H74.6666C84.1814 12.1406 91.9219 19.8811 91.9219 29.3959C91.9219 33.5133 90.4459 37.5024 87.768 40.6277V40.6277ZM81.174 27.75L81.2971 25.8994C81.3561 24.9923 82.1175 24.2812 83.0263 24.2812H83.25C84.2074 24.2812 84.9844 25.0583 84.9844 26.0156C84.9844 26.973 84.2074 27.75 83.25 27.75H81.174ZM67.9823 27.75H65.9062C64.9489 27.75 64.1719 26.973 64.1719 26.0156C64.1719 25.0583 64.9489 24.2812 65.9062 24.2812H66.13C67.0388 24.2812 67.8002 24.9923 67.8592 25.9012L67.9823 27.75Z" fill="white"/>
<path d="M104.062 1.73438H45.0938C42.2251 1.73438 39.8906 4.06884 39.8906 6.9375V53.7656H6.9375C4.06884 53.7656 1.73438 56.1001 1.73438 58.9688V104.062C1.73438 106.931 4.06884 109.266 6.9375 109.266H55.5C58.3687 109.266 60.7031 106.931 60.7031 104.062V71.1094H104.062C106.931 71.1094 109.266 68.7749 109.266 65.9062V6.9375C109.266 4.06884 106.931 1.73438 104.062 1.73438ZM57.2344 104.062C57.2344 105.02 56.4574 105.797 55.5 105.797H6.9375C5.98013 105.797 5.20312 105.02 5.20312 104.062V58.9688C5.20312 58.0114 5.98013 57.2344 6.9375 57.2344H55.5C56.4574 57.2344 57.2344 58.0114 57.2344 58.9688V104.062ZM105.797 65.9062C105.797 66.8636 105.02 67.6406 104.062 67.6406H60.7031V58.9688C60.7031 56.1001 58.3687 53.7656 55.5 53.7656H43.3594V6.9375C43.3594 5.98013 44.1364 5.20312 45.0938 5.20312H104.062C105.02 5.20312 105.797 5.98013 105.797 6.9375V65.9062Z" fill="white"/>
<path d="M31.2188 60.7031C22.611 60.7031 15.6094 67.7048 15.6094 76.3125V76.6472C15.6094 80.1784 16.8234 83.6402 19.0296 86.3996L22.5469 90.7963V93.6562C22.5469 98.4379 26.4371 102.328 31.2188 102.328C36.0004 102.328 39.8906 98.4379 39.8906 93.6562V90.7963L43.4079 86.4014C45.6141 83.642 46.8281 80.1784 46.8281 76.6472V76.3125C46.8281 67.7048 39.8265 60.7031 31.2188 60.7031ZM31.2188 98.8594C28.3501 98.8594 26.0156 96.5249 26.0156 93.6562V91.9219H36.4219V93.6562C36.4219 96.5249 34.0874 98.8594 31.2188 98.8594ZM29.4844 76.3125C29.4844 75.3551 30.2614 74.5781 31.2188 74.5781C32.1761 74.5781 32.9531 75.3551 32.9531 76.3125C32.9531 77.2699 32.1761 78.0469 31.2188 78.0469C30.2614 78.0469 29.4844 77.2699 29.4844 76.3125ZM43.3594 76.6472C43.3594 79.3928 42.4141 82.088 40.6988 84.2317L37.322 88.4531H32.9531V81.1965C34.9667 80.4785 36.4219 78.5707 36.4219 76.3125C36.4219 73.4438 34.0874 71.1094 31.2188 71.1094C28.3501 71.1094 26.0156 73.4438 26.0156 76.3125C26.0156 78.5707 27.4708 80.4785 29.4844 81.1965V88.4531H25.1155L21.7404 84.2317C20.0234 82.088 19.0781 79.3928 19.0781 76.6472V76.3125C19.0781 69.6195 24.5258 64.1719 31.2188 64.1719C37.9117 64.1719 43.3594 69.6195 43.3594 76.3125V76.6472Z" fill="white"/>
<path d="M98.8594 86.7187C98.8594 89.5874 96.5249 91.9219 93.6563 91.9219H61.7195L73.3519 103.554L75.8044 101.102L70.0931 95.3906H93.6563C98.438 95.3906 102.328 91.5004 102.328 86.7187V74.5781H98.8594V86.7187Z" fill="white"/>
<path d="M64.1719 84.9844H67.6406V88.4531H64.1719V84.9844Z" fill="white"/>
<path d="M71.1094 84.9844H74.5781V88.4531H71.1094V84.9844Z" fill="white"/>
<path d="M95.3906 84.9844V74.5781H91.9219V84.9844H78.0469V88.4531H91.9219C93.8349 88.4531 95.3906 86.8974 95.3906 84.9844Z" fill="white"/>
<path d="M5.20312 34.6871C5.20312 31.8185 7.53759 29.484 10.4062 29.484H38.8743L27.2418 17.8516L24.7894 20.304L30.5007 26.0153H10.4062C5.62458 26.0153 1.73438 29.9055 1.73438 34.6871V46.8278H5.20312V34.6871Z" fill="white"/>
<path d="M32.9531 32.9531H36.4219V36.4219H32.9531V32.9531Z" fill="white"/>
<path d="M26.0156 32.9531H29.4844V36.4219H26.0156V32.9531Z" fill="white"/>
<path d="M8.67188 36.4219V46.8281H12.1406V36.4219H22.5469V32.9531H12.1406C10.2276 32.9531 8.67188 34.5089 8.67188 36.4219Z" fill="white"/>
<path d="M8.67188 98.8594H12.1406V102.328H8.67188V98.8594Z" fill="white"/>
<path d="M8.67188 91.9219H12.1406V95.3906H8.67188V91.9219Z" fill="white"/>
<path d="M8.67188 84.9844H12.1406V88.4531H8.67188V84.9844Z" fill="white"/>
<path d="M50.2969 67.6406H53.7656V71.1094H50.2969V67.6406Z" fill="white"/>
<path d="M50.2969 60.7031H53.7656V64.1719H50.2969V60.7031Z" fill="white"/>
<path d="M50.2969 74.5781H53.7656V78.0469H50.2969V74.5781Z" fill="white"/>
<path d="M98.8594 60.7031H102.328V64.1719H98.8594V60.7031Z" fill="white"/>
<path d="M98.8594 53.7656H102.328V57.2344H98.8594V53.7656Z" fill="white"/>
<path d="M98.8594 46.8281H102.328V50.2969H98.8594V46.8281Z" fill="white"/>
<path d="M46.8281 22.5469H50.2969V26.0156H46.8281V22.5469Z" fill="white"/>
<path d="M46.8281 15.6094H50.2969V19.0781H46.8281V15.6094Z" fill="white"/>
<path d="M46.8281 8.67188H50.2969V12.1406H46.8281V8.67188Z" fill="white"/>
</svg>
