<svg width="100" height="100" viewBox="0 0 100 100" fill="none" xmlns="http://www.w3.org/2000/svg">
<path fill-rule="evenodd" clip-rule="evenodd" d="M98.1818 17.2805C82.0096 13.445 65.8373 7.56916 51.1962 0.306031C50.4306 -0.10201 49.4737 -0.10201 48.7081 0.306031C33.7799 7.81399 18.3732 13.3633 1.81818 17.2805C0.76555 17.5254 0 18.3414 0 19.2391V40.7837C0 62.8995 11.9617 77.5074 22.0096 85.913C32.823 94.9716 45.4545 99.9497 49.9522 99.9497C54.5455 99.9497 67.177 94.9716 77.9904 85.913C88.0383 77.5074 100 62.8995 100 40.7837V19.2391C100 18.3414 99.2345 17.5254 98.1818 17.2805ZM95.0239 40.7837C95.0239 61.4306 83.8278 75.0592 74.5455 82.8935C63.9234 91.7888 52.5359 95.706 49.9522 95.706C47.4641 95.706 36.0766 91.7888 25.4545 82.8935C16.0766 75.0592 4.97608 61.4306 4.97608 40.7837V20.8713C20.7656 17.0357 35.5981 11.6496 49.9522 4.54966C64.0191 11.4864 79.5215 17.1173 95.0239 20.8713V40.7837Z" fill="white"/>
<path fill-rule="evenodd" clip-rule="evenodd" d="M28.1313 20.6284C27.6528 19.5675 26.2174 18.9962 24.9734 19.4859C20.4758 20.9548 15.9782 22.2605 11.4805 23.4847C10.4279 23.8111 9.75806 24.5456 9.75806 25.5249V33.6041C9.75806 34.7466 10.9064 35.7259 12.2461 35.7259C13.5858 35.7259 14.7341 34.7466 14.7341 33.6041V27.0754C18.7533 25.9329 22.7724 24.7088 26.6959 23.3214C28.0356 22.9134 28.6097 21.6893 28.1313 20.6284Z" fill="white"/>
<path fill-rule="evenodd" clip-rule="evenodd" d="M32.8232 21.0361C33.1103 21.0361 33.493 20.9545 33.7801 20.8729H33.8758C35.1198 20.3832 35.694 19.1591 35.1198 18.0982C34.5457 17.0373 33.1103 16.5477 31.8662 16.9557L31.7705 17.0373C30.5265 17.4453 30.0481 18.6695 30.5265 19.812C30.9093 20.5465 31.8662 21.0361 32.8232 21.0361Z" fill="white"/>
<path fill-rule="evenodd" clip-rule="evenodd" d="M79.3289 67.7999C78.1806 67.1471 76.6495 67.3919 75.9796 68.3712C73.8743 71.0642 71.5777 73.5941 68.8983 75.9607C66.6973 77.9193 64.305 79.7147 61.8169 81.3469C60.6686 81.9997 60.4772 83.3055 61.3385 84.2848C61.8169 84.7744 62.5825 85.1009 63.2523 85.1009C63.8265 85.1009 64.305 84.9376 64.7834 84.6928C67.4629 82.8974 70.0466 80.9388 72.4389 78.8986C75.3097 76.2872 77.8935 73.5941 80.0944 70.7378C80.86 69.7585 80.4772 68.4528 79.3289 67.7999Z" fill="white"/>
<path fill-rule="evenodd" clip-rule="evenodd" d="M56.0758 84.6121L55.8845 84.6938C54.7361 85.265 54.3534 86.5707 55.0232 87.55C55.5017 88.2029 56.2672 88.611 57.1285 88.611C57.6069 88.611 57.9897 88.5293 58.3725 88.2845L58.5639 88.2029C59.7122 87.6317 60.095 86.4075 59.4251 85.3466C58.7553 84.3673 57.2242 84.0409 56.0758 84.6121Z" fill="white"/>
<path fill-rule="evenodd" clip-rule="evenodd" d="M33.2059 45.6833C31.6748 44.3776 29.6653 43.6431 27.4643 43.6431C25.359 43.6431 23.3495 44.3776 21.8184 45.6833C18.7562 48.3764 18.7562 52.7016 21.8184 55.3131L36.3638 67.7991C37.8949 69.0232 39.9045 69.7577 42.1055 69.7577C44.2107 69.7577 46.2203 69.0232 47.7514 67.7991L78.0863 41.8477C81.2442 39.1546 81.2442 34.8294 78.0863 32.1363C76.6509 30.9122 74.6413 30.1777 72.4404 30.1777C70.3351 30.1777 68.3255 30.9122 66.7944 32.1363L42.1055 53.2729L33.2059 45.6833ZM70.2394 35.1558C70.9093 34.6662 71.6748 34.3398 72.4404 34.3398C73.3016 34.3398 74.0672 34.6662 74.6413 35.1558C75.8854 36.1351 75.8854 37.8489 74.6413 38.8282L44.2107 64.7796C43.6366 65.2693 42.871 65.5957 42.1055 65.5957C41.2442 65.5957 40.4787 65.2693 39.9045 64.7796L25.359 52.3752C24.115 51.3143 24.115 49.6821 25.359 48.6212C25.9332 48.1315 26.6988 47.8867 27.4643 47.8867C28.3256 47.8867 29.0911 48.1315 29.6653 48.6212L40.2873 57.6797C40.7657 58.0877 41.4356 58.3326 42.1055 58.3326C42.6796 58.3326 43.3495 58.0877 43.8279 57.6797L70.2394 35.1558Z" fill="white"/>
</svg>
