<svg width="100" height="100" viewBox="0 0 100 100" fill="none" xmlns="http://www.w3.org/2000/svg">
<g clip-path="url(#clip0)">
<path fill-rule="evenodd" clip-rule="evenodd" d="M93.1717 49.9996C95.3457 45.9629 96.8985 41.6156 98.1407 37.5789C101.867 24.5371 100.004 13.6689 93.1717 6.8375C86.3395 0.00608711 75.4699 -1.85703 62.4264 1.8692C58.3891 3.11127 54.0413 4.66387 50.0041 6.8375C44.7245 4.04283 39.445 2.17972 34.4761 1.24816C22.6749 -1.54651 13.0475 0.627125 6.83635 6.8375C2.79908 10.8742 0.314611 16.4636 0.00405249 22.9845C-0.306507 28.8843 0.935729 35.7157 3.4202 42.8577C1.24629 44.4103 0.00405249 47.2049 0.00405249 49.9996C0.00405249 53.1048 1.24629 55.5889 3.4202 57.4521C0.935729 64.2835 -0.306507 71.1149 0.00405249 77.0147C0.314611 83.5356 2.79908 89.4355 6.83635 93.1617C11.1842 97.8195 17.3954 99.9931 24.8488 99.9931C26.4016 99.9931 27.9544 99.9931 29.8177 99.6826C36.0289 99.0616 43.1718 96.8879 50.0041 93.1617C54.0413 95.3353 58.3891 96.8879 62.4264 98.13C67.0848 99.3721 71.1221 99.9931 75.1593 99.9931C82.6127 99.9931 88.8239 97.8195 93.1717 93.1617C99.3829 86.9513 101.557 77.3253 98.7618 65.5255C97.8301 60.5572 95.9668 55.2784 93.1717 49.9996ZM63.3581 4.66387C75.1593 1.24816 85.0972 2.80076 91.3084 8.70061C97.209 14.911 98.7618 24.8476 95.3457 36.6473C94.414 40.063 93.1717 43.4787 91.619 46.8944C88.8239 41.6156 85.0972 36.6473 81.0599 31.9895C82.3022 30.4369 83.2339 28.2633 83.2339 26.0897C83.2339 23.916 82.6127 22.0529 81.3705 20.5003L78.886 22.3634C79.8177 23.295 80.1283 24.8476 80.1283 26.0897C80.1283 29.5054 77.3332 32.6106 73.9171 32.6106C70.5009 32.6106 67.3954 29.5054 67.3954 26.0897C67.3954 22.674 70.5009 19.8793 73.9171 19.8793C75.1593 19.8793 76.091 20.1898 77.0227 20.8108L78.5755 18.0162C77.3332 17.3951 75.4699 16.7741 73.9171 16.7741C71.7432 16.7741 69.8798 17.7057 68.0165 18.9477C63.3581 14.911 58.3891 11.1848 53.1096 8.39009C56.5258 6.8375 59.9419 5.59542 63.3581 4.66387ZM8.6997 8.70061C16.7742 0.937643 31.3705 1.24816 46.8985 8.39009C39.1345 12.7374 31.6811 18.3267 25.1593 25.1581C20.1904 30.1264 15.532 35.4052 11.8053 40.9946C11.1842 40.9946 10.2525 40.684 9.32082 40.684C8.07859 40.684 7.14691 40.9946 6.21523 41.3051C0.93573 27.3317 1.86741 15.532 8.6997 8.70061ZM25.1593 97.1985C18.327 97.1985 12.737 95.0248 8.6997 91.2986C1.86741 84.4672 0.93573 72.6675 6.21523 58.6941C7.14691 59.0046 8.07859 59.3152 9.32082 59.3152C10.2525 59.3152 11.1842 59.3152 11.8053 59.0046C15.532 64.594 20.1904 69.8728 25.1593 74.8411C31.6811 81.6725 39.1345 87.2619 46.8985 91.6091C39.1345 95.3353 31.6811 97.1985 25.1593 97.1985ZM50.0041 90.0565C41.9295 85.7093 34.1655 80.1199 27.0227 72.978C22.3643 68.0097 18.0165 63.0414 14.6003 57.7626C17.0848 55.8995 18.6376 53.1048 18.6376 49.9996C18.6376 49.6891 18.6376 49.3786 18.6376 49.0681L15.532 49.3786C15.532 49.6891 15.532 49.6891 15.532 49.9996C15.532 53.4153 12.737 56.5205 9.32082 56.5205C5.90467 56.5205 2.79908 53.4153 2.79908 49.9996C2.79908 46.5839 5.90467 43.7892 9.32082 43.7892C11.8053 43.7892 13.9792 45.0313 14.9109 47.2049L17.7059 45.9629C16.7742 44.4103 15.8426 43.1682 14.6003 42.2366C18.0165 36.9578 22.3643 31.9895 27.0227 27.0212C34.1655 19.8793 41.9295 14.2899 50.0041 9.94269C55.2836 12.7374 60.8736 16.4636 66.1531 21.1214C65.2214 22.3634 64.6003 24.2265 64.6003 26.0897C64.6003 31.3685 68.6376 35.4052 73.9171 35.4052C75.7804 35.4052 77.6438 34.7842 78.886 33.8526C83.5444 39.1314 87.2711 44.7208 90.0662 49.9996C85.7183 58.0731 80.1283 65.8361 72.9854 72.978C72.0537 73.599 71.4326 74.5306 70.5009 75.1516C68.9482 73.9095 66.7742 72.978 64.6003 72.978C62.4264 72.978 60.5631 73.599 58.6997 74.8411L60.5631 77.3253C61.8053 76.3937 63.0475 76.0832 64.6003 76.0832C68.0165 76.0832 70.8115 78.8778 70.8115 82.2936C70.8115 85.7093 68.0165 88.5039 64.6003 88.5039C60.8736 88.5039 58.0786 85.7093 58.0786 82.2936C58.0786 81.0515 58.3891 80.1199 59.0103 79.1884L56.5258 77.6358C55.5941 78.8778 55.2836 80.741 55.2836 82.2936C55.2836 83.8461 55.5941 85.0882 56.2152 86.3303C54.0413 87.5724 52.178 88.8144 50.0041 90.0565ZM91.3084 91.2986C85.0972 97.1985 75.1593 98.751 63.3581 95.3353C59.9419 94.4038 56.5258 93.1617 53.1096 91.6091C54.6624 90.6776 56.2152 89.746 57.768 88.8144C59.6314 90.367 61.8053 91.6091 64.6003 91.6091C69.5693 91.6091 73.9171 87.5724 73.9171 82.2936C73.9171 80.4304 73.296 78.8778 72.3643 77.3253C73.296 76.7042 74.2277 75.7727 74.8488 74.8411C81.6811 68.3202 87.2711 60.8678 91.619 53.1048C98.7618 68.6307 99.0724 83.2251 91.3084 91.2986Z" fill="white"/>
<path fill-rule="evenodd" clip-rule="evenodd" d="M74.2232 65.2106H71.1177V57.7581C71.1177 54.6529 68.9437 51.5477 65.8382 50.6162L64.5959 50.3057L63.6642 53.1003L64.9065 53.4109C66.7698 54.0319 68.0121 55.895 68.0121 57.7581V65.2106H62.7326V61.1738H59.9375V65.2106H46.5835V68.0052H74.2232V65.2106Z" fill="white"/>
<path fill-rule="evenodd" clip-rule="evenodd" d="M54.9705 50.6184L60.8711 52.4815L61.8028 49.6868L55.9022 47.8237V44.0975C58.3866 42.2344 60.25 39.1292 60.25 35.403V31.3662C60.25 25.4664 55.5916 20.8086 50.0016 20.8086C44.4115 20.8086 39.7531 25.4664 39.7531 31.3662V35.403C39.7531 39.1292 41.6165 42.2344 44.1009 44.0975V47.8237L34.163 50.6184C31.0575 51.55 28.8835 54.6551 28.8835 57.7603V65.2128H25.778V68.0074H43.7904V65.2128H40.0637V61.176H37.2686V65.2128H31.9891V57.7603C31.9891 55.8972 33.2314 54.0341 35.0947 53.4131L45.0326 50.6184C46.2748 52.171 48.1382 52.792 50.0016 52.792C51.8649 52.792 53.7283 52.171 54.9705 50.6184ZM50.0016 23.9138C54.0388 23.9138 57.455 27.3295 57.455 31.3662V32.9188L54.3494 28.8821H43.1693C44.1009 26.0874 46.896 23.9138 50.0016 23.9138ZM42.5481 35.403V31.6768H52.7966L57.1444 37.2661C56.2127 40.6818 53.4177 42.8554 50.0016 42.8554C45.9643 42.8554 42.5481 39.4397 42.5481 35.403ZM47.2065 48.4448V45.3396C48.1382 45.6501 49.0699 45.6501 50.0016 45.6501C50.9332 45.6501 51.8649 45.6501 52.7966 45.3396V48.4448C52.1755 49.3763 51.2438 49.9974 50.0016 49.9974C48.7593 49.9974 47.8276 49.3763 47.2065 48.4448Z" fill="white"/>
<path fill-rule="evenodd" clip-rule="evenodd" d="M57.7617 57.7604L53.7245 56.5183L54.3456 53.7236L58.6934 54.6552L57.7617 57.7604Z" fill="white"/>
<path fill-rule="evenodd" clip-rule="evenodd" d="M64.2873 56.5194L63.3556 59.3141L60.5605 58.3826L61.4922 55.5879L64.2873 56.5194Z" fill="white"/>
<path fill-rule="evenodd" clip-rule="evenodd" d="M72.3619 24.5361H75.4675V27.6413H72.3619V24.5361Z" fill="white"/>
<path fill-rule="evenodd" clip-rule="evenodd" d="M63.0432 80.7393H65.8382V83.8444H63.0432V80.7393Z" fill="white"/>
<path fill-rule="evenodd" clip-rule="evenodd" d="M7.76367 48.4473H10.8693V51.5525H7.76367V48.4473Z" fill="white"/>
</g>
<defs>
<clipPath id="clip0">
<rect width="100" height="100" fill="white"/>
</clipPath>
</defs>
</svg>
