<svg width="1440" height="213" viewBox="0 0 1440 213" fill="none" xmlns="http://www.w3.org/2000/svg">
<path fill-rule="evenodd" clip-rule="evenodd" d="M0 0H1440V98.8919C1440 98.8919 1222.5 226.531 1002 211.819C904.593 205.32 836.068 182.526 765.649 159.101C676.66 129.5 584.646 98.8919 427.5 98.8919C205.5 98.8919 0 166.891 0 166.891V0Z" fill="#F99200"/>
<path fill-rule="evenodd" clip-rule="evenodd" d="M0 0H1440V79.9166C1440 79.9166 1222.5 200.816 1002 186.882C904.593 180.726 836.068 159.135 765.649 136.947C676.66 108.908 584.646 79.9166 427.5 79.9166C205.5 79.9166 0 144.326 0 144.326V0Z" fill="black"/>
</svg>
